<svg data-v-dff7ae5e="" width="284" height="283" viewBox="0 0 284 283" xmlns="http://www.w3.org/2000/svg" class="fill-inherit w-full h-full fill-main-black stroke-main-black animate-[spin_8s_linear_infinite]"><mask id="path-1-outside-1_106_53" maskUnits="userSpaceOnUse" x="0" y="0.99176" width="284" height="282" fill="inherit"><rect fill="none" y="0.99176" width="284" height="282"></rect> <path fill-rule="evenodd" clip-rule="evenodd" d="M140.815 281.259C218.684 282.006 282.34 220.097 282.995 142.981C283.649 65.8653 221.055 2.74526 143.185 1.99845C65.3159 1.25164 1.65966 63.1609 1.00509 140.277C0.350514 217.392 62.9454 280.512 140.815 281.259ZM139 267C213.006 267 273 207.902 273 135C273 62.0984 213.006 3 139 3C64.9939 3 5 62.0984 5 135C5 207.902 64.9939 267 139 267Z"></path></mask> <path fill-rule="evenodd" clip-rule="evenodd" d="M140.815 281.259C218.684 282.006 282.34 220.097 282.995 142.981C283.649 65.8653 221.055 2.74526 143.185 1.99845C65.3159 1.25164 1.65966 63.1609 1.00509 140.277C0.350514 217.392 62.9454 280.512 140.815 281.259ZM139 267C213.006 267 273 207.902 273 135C273 62.0984 213.006 3 139 3C64.9939 3 5 62.0984 5 135C5 207.902 64.9939 267 139 267Z" fill="inherit"></path> <path d="M282.995 142.981L283.995 142.99L282.995 142.981ZM140.815 281.259L140.824 280.259L140.824 280.259L140.815 281.259ZM143.185 1.99845L143.195 0.998492L143.185 1.99845ZM1.00509 140.277L2.00505 140.285L1.00509 140.277ZM281.995 142.973C281.345 219.526 218.15 281.001 140.824 280.259L140.805 282.259C219.218 283.011 283.336 220.667 283.995 142.99L281.995 142.973ZM143.176 2.9984C220.502 3.74001 282.645 66.4178 281.995 142.973L283.995 142.99C284.654 65.3128 221.607 1.75051 143.195 0.998492L143.176 2.9984ZM2.00505 140.285C2.65486 63.7312 65.8498 2.2568 143.176 2.9984L143.195 0.998492C64.782 0.246471 0.664466 62.5905 0.00512336 140.268L2.00505 140.285ZM140.824 280.259C63.4977 279.518 1.35524 216.84 2.00505 140.285L0.00512336 140.268C-0.654212 217.945 62.3932 281.507 140.805 282.259L140.824 280.259ZM272 135C272 207.335 212.468 266 139 266V268C213.544 268 274 208.468 274 135H272ZM139 4C212.468 4 272 62.6648 272 135H274C274 61.532 213.544 2 139 2V4ZM6 135C6 62.6648 65.5319 4 139 4V2C64.4558 2 4 61.532 4 135H6ZM139 266C65.5319 266 6 207.335 6 135H4C4 208.468 64.4558 268 139 268V266Z" fill="black" mask="url(#path-1-outside-1_106_53)"></path> <path d="M134 85H150V92.4074L134 98.7037V105H150M134 92.4074H142.533V98.7037H150" stroke="inherit" stroke-width="3" fill="none"></path> <path d="M168 72H183V78.6667L168 84.3333V90H183M168 78.6667H176V84.3333H183" stroke="inherit" stroke-width="3" fill="none"></path> <path fill-rule="evenodd" clip-rule="evenodd" d="M170.147 272.747C229.079 259.706 273 209.263 273 149.024C273 144.122 272.709 139.286 272.143 134.529C270.88 133.352 269.323 132.511 267.615 132.11L266.178 131.772C264.113 131.286 262.256 130.156 260.876 128.545L254 120.524L242.451 102.987C241.152 101.014 240.007 98.9509 238.876 96.8765C236.371 92.2787 231.247 83.8567 225.5 80.0238C225.026 79.7075 224.578 79.405 224.15 79.116L224.146 79.1138L224.145 79.113C219.566 76.021 217.271 74.4717 209.5 74.0238C209.294 74.012 209.084 74.0047 208.871 74.0017C200.267 73.8814 193.127 80.067 187.708 86.7507L184.66 90.5095C182.223 93.5152 180.005 96.6916 178.022 100.014L146.083 153.533C144.747 155.771 142.591 157.4 140.073 158.071L129.724 160.831C129.271 160.952 128.787 160.841 128.431 160.536C124.284 156.982 121.562 152.048 120.768 146.644L119.5 138.024V128.407C119.5 121.892 118.098 115.396 115.433 109.452C114.148 106.585 115.649 103.209 118.651 102.285C119.213 102.112 119.742 101.846 120.215 101.497L125.269 97.7727C126.681 96.7325 126.166 94.5085 124.441 94.1949L102.786 90.2577C101.932 90.1024 101.102 89.8367 100.317 89.4672L93.7324 86.3685C93.2449 86.1391 92.7397 85.9495 92.2217 85.8014L85.1847 83.7909C83.4285 83.2891 81.5684 83.2779 79.8063 83.7585L68.0992 86.9513C66.7159 87.3286 65.4299 87.9989 64.3285 88.9167L58.0361 94.1604C57.3485 94.7334 56.5871 95.2115 55.7722 95.5819L54.8106 96.019C52.672 96.9911 50.2595 97.1792 47.9961 96.5505L43.8134 95.3886C42.9418 95.1465 42.0415 95.0238 41.1369 95.0238H37.0261C36.0146 95.0238 35.0089 95.1773 34.0434 95.479L29.3944 96.9318C28.1437 97.3227 26.9819 97.9555 25.9753 98.7944L25.3973 99.2761C24.8011 99.7729 24.2648 100.337 23.7992 100.958L22.7116 102.408C21.912 103.475 21.3335 104.69 21.0102 105.983L20.2986 108.83C20.1003 109.623 20 110.437 20 111.255V116.034C20 116.692 20.065 117.349 20.1942 117.995L21.112 122.584C21.3682 123.865 21.8728 125.083 22.5973 126.17L23.7044 127.83C24.2296 128.618 24.9056 129.294 25.6934 129.819C26.8714 130.605 28.2555 131.024 29.6713 131.024H42.5742C43.8464 131.024 45.1069 131.267 46.2881 131.739L56.3974 135.783C59.3211 136.952 60.4813 140.477 58.8239 143.154C56.6227 146.71 55.0153 150.601 54.0651 154.674L50.8949 168.26C49.3073 175.064 48.7473 182.068 49.2335 189.038L49.4164 191.658C49.8036 197.208 50.9608 202.678 52.8549 207.909L56.9062 219.098C59.267 225.618 63.1697 231.471 68.2815 236.157L75.7481 243.001C81.5493 248.319 88.1218 252.728 95.2425 256.079L101.5 259.024L111.895 264.222C113.596 265.072 115.02 266.39 115.998 268.021L119.939 274.589C126.482 275.534 133.181 276.024 140 276.024C145.141 276.024 150.215 275.745 155.204 275.203C155.16 274.809 155.092 274.414 154.999 274.019L151.119 257.531C151.04 257.194 151 256.849 151 256.503C151 251.715 157.495 250.257 159.542 254.585L166.321 268.917C167.131 270.63 168.499 271.965 170.147 272.747ZM58.4554 107.326C59.4284 107.095 61.2589 106.094 62.379 105.306L65.6605 103.651L72.1819 104.892L78.7033 105.72H84.9998L76.4546 109.237L76.9043 107.789L71.7322 109.651L72.1819 107.375L64.7611 108.823L67.9093 106.547C66.1104 106.808 62.2255 107.07 59.89 107.227L59.8898 107.227L59.8888 107.227C59.2875 107.267 58.7891 107.301 58.4554 107.326ZM58.1064 107.375C58.2038 107.375 58.3215 107.358 58.4554 107.326C58.0333 107.357 57.8751 107.375 58.1064 107.375ZM209.49 174.856L209.484 185.078C209.482 187.289 211.275 189.081 213.486 189.08L224.365 189.075C226.576 189.073 228.368 190.866 228.367 193.077L228.347 227.41C228.346 229.63 230.153 231.426 232.372 231.412L236.035 231.389C238.258 231.375 240.043 229.552 240.009 227.33L239.222 174.764C239.189 172.57 237.395 170.812 235.201 170.824L233.793 170.832C232.22 170.841 230.952 172.123 230.961 173.695C230.969 175.268 229.702 176.55 228.129 176.558L220.35 176.601C218.762 176.61 217.468 175.331 217.46 173.743C217.451 172.177 216.19 170.906 214.623 170.885L213.53 170.871C211.308 170.842 209.491 172.634 209.49 174.856ZM199.356 171.022L189.746 171.075C187.537 171.088 185.756 172.888 185.768 175.098L185.927 203.856C185.94 206.065 187.74 207.846 189.949 207.834L199.559 207.781C201.769 207.769 203.569 209.549 203.582 211.759L203.669 227.548C203.681 229.767 205.498 231.552 207.717 231.525L216.2 231.422C218.389 231.396 220.15 229.614 220.152 227.425L220.167 200.882C220.168 198.671 218.376 196.879 216.165 196.88L207.479 196.884C205.278 196.886 203.489 195.108 203.477 192.906L203.378 175C203.366 172.791 201.565 171.01 199.356 171.022ZM138.635 171.358L106 171.538C98.8208 171.578 93.0328 177.431 93.0725 184.61L93.1609 200.603L93.3355 232.184L106.17 232.177C108.377 232.176 110.167 230.364 110.168 228.157C110.169 225.946 108.377 224.131 106.166 224.132L102.337 224.134C100.126 224.135 98.3336 222.343 98.3348 220.132L98.3405 210.401C98.3413 209.02 99.4605 207.901 100.841 207.901C101.674 207.9 102.452 208.314 102.917 209.004L117.058 229.974C117.802 231.078 119.046 231.739 120.377 231.738L129.003 231.734C131.104 231.732 132.806 230.03 132.808 227.929C132.809 225.825 131.103 224.119 128.999 224.12L124.72 224.122C123.535 224.123 122.41 223.598 121.65 222.689L103.709 201.243L102.847 200.198C101.288 198.307 101.78 195.47 103.887 194.216L139.152 173.217C140.027 172.696 139.654 171.352 138.635 171.358ZM139.903 180.447L114.791 194.918C112.385 196.305 112.089 199.661 114.216 201.447L139.525 222.707C142.135 224.899 146.116 223.031 146.097 219.622L145.9 183.891C145.883 180.823 142.561 178.915 139.903 180.447ZM152.313 175.907L152.568 222.073C152.58 224.25 155.569 224.843 156.412 222.837L165.77 200.565L177.684 227.346C178.124 228.336 179.604 228.017 179.598 226.934L179.339 180.159C179.327 178.018 176.415 177.39 175.522 179.335L165.77 200.565L154.221 175.483C153.771 174.506 152.307 174.831 152.313 175.907ZM216.5 66.5H203V63.5H218H219.5V65V71.6667V72.7035L218.53 73.0699L212.5 75.3479V75.8333H218V78.8333H211H209.5V77.3333V76.4812L204.5 78.3701V81.5H218V84.5H203H201.5V83V77.3333V76.2965L202.47 75.9301L209.5 73.2743V73.1667H203V70.1667H211H212.5V71.6667V72.141L216.5 70.6299V66.5Z" fill="inherit"></path></svg>